<?xml version="1.0" encoding="utf-8"?>
<!-- Generator: Adobe Illustrator 21.1.0, SVG Export Plug-In . SVG Version: 6.00 Build 0)  -->
<svg version="1.1" id="_x30_" xmlns="http://www.w3.org/2000/svg" xmlns:xlink="http://www.w3.org/1999/xlink" x="0px" y="0px"
	 viewBox="0 0 612 792" style="enable-background:new 0 0 612 792;" xml:space="preserve">
<style type="text/css">
	.st0{fill:none;stroke:#000000;stroke-width:0.7087;stroke-linecap:round;stroke-linejoin:round;stroke-miterlimit:10;}
</style>
<g id="CIRCLE">
	<path class="st0" d="M237.4,395.5c0-38.2,30.9-69.1,69.1-69.1s69.1,30.9,69.1,69.1s-30.9,69.1-69.1,69.1S237.4,433.7,237.4,395.5
		L237.4,395.5z"/>
</g>
<g id="CIRCLE_1_">
	<path class="st0" d="M340.4,408.4c0-0.8,0.6-1.4,1.4-1.4s1.4,0.6,1.4,1.4c0,0.8-0.6,1.4-1.4,1.4S340.4,409.2,340.4,408.4
		L340.4,408.4z"/>
</g>
<g id="CIRCLE_2_">
	<path class="st0" d="M341.9,386.3c0-0.8,0.6-1.4,1.4-1.4c0.8,0,1.4,0.6,1.4,1.4s-0.6,1.4-1.4,1.4
		C342.5,387.7,341.9,387.1,341.9,386.3L341.9,386.3z"/>
</g>
<g id="CIRCLE_3_">
	<path class="st0" d="M332.8,372.4c0-0.8,0.6-1.4,1.4-1.4s1.4,0.6,1.4,1.4c0,0.8-0.6,1.4-1.4,1.4S332.8,373.2,332.8,372.4
		L332.8,372.4z"/>
</g>
<g id="CIRCLE_4_">
	<path class="st0" d="M328,368.1c0-0.8,0.6-1.4,1.4-1.4c0.8,0,1.4,0.6,1.4,1.4c0,0.8-0.6,1.4-1.4,1.4
		C328.7,369.6,328,368.9,328,368.1L328,368.1z"/>
</g>
<g id="CIRCLE_5_">
	<path class="st0" d="M319.1,361.3c0-0.8,0.6-1.4,1.4-1.4c0.8,0,1.4,0.6,1.4,1.4s-0.6,1.4-1.4,1.4
		C319.7,362.7,319.1,362.1,319.1,361.3L319.1,361.3z"/>
</g>
<g id="LWPOLYLINE">
	<path class="st0" d="M313,367.9c10.4,2.5,18.6,10.6,21,21c3.6,15.2-5.8,30.5-21,34.1h-33c-2.7,0-5.3-1.3-6.9-3.5
		c-10.4-14.4-10.4-33.7,0-48.1c1.6-2.2,4.2-3.5,6.9-3.5H313z"/>
</g>
</svg>
